<svg width="130" height="130" viewBox="0 0 130 130" fill="none" xmlns="http://www.w3.org/2000/svg">
<circle cx="65" cy="65" r="65" fill="black"/>
<path d="M59.0704 89.2409L53.6503 102.728C53.2739 103.875 54.629 104.637 55.3064 103.262L60.576 89.9267C66.7489 96.7123 74.3521 98.1601 80.6003 95.3369C89.1069 91.0735 92.4192 79.6434 92.0427 72.2481C91.9732 70.8822 91.1394 70.0956 88.8057 70.2669C81.8271 70.7793 78.6976 68.9873 73.7499 64.0947C79.1157 66.4556 81.7255 67.2922 85.644 67.6761C91.7417 68.2735 93.9959 65.2639 94 61.1991C93.5594 50.8725 92.0428 47.7916 88.4293 48.626C83.9802 49.8997 81.5699 49.5648 77.4385 46.8734C80.2612 46.8054 81.9802 46.6522 85.3429 45.5018C87.0744 44.8197 87.711 43.6167 86.9237 41.9203C84.4842 36.4455 83.2993 33.2407 81.5036 27.2898C81.052 25.7696 79.2501 25.5624 77.3633 26.8326C69.6095 32.3191 66.8996 34.3301 64.6411 35.6719C61.4041 37.5007 57.4896 40.2439 56.2098 42.2251C54.0267 45.5017 57.339 49.1594 63.5871 51.2168C59.8232 52.8932 57.7564 51.9285 52.4458 46.8734C51.5425 46.1876 50.2628 46.4162 48.8324 46.8734C46.7999 47.5592 43.1865 50.9882 42.0573 55.484C40.8528 62.1135 46.6493 61.5801 54.102 64.3995C51.9942 66.9141 47.101 66.3807 41.2292 62.9517C40.4764 62.5707 39.3472 62.7548 38.8202 63.3327C37.0136 65.3139 34.6046 71.5623 37.0135 77.2012C41.0033 85.0498 49.6605 91.2983 59.0704 89.2409Z" fill="white"/>
</svg>
