<svg width="24" height="33" viewBox="0 0 24 33" fill="none" xmlns="http://www.w3.org/2000/svg">
<path d="M9.54637 26.0261L7.30356 31.5767C7.14783 32.0486 7.70853 32.3622 7.98886 31.7962L10.1694 26.3083C12.7237 29.1009 15.8699 29.6967 18.4553 28.5348C21.9753 26.7803 23.3459 22.0763 23.1901 19.0329C23.1613 18.4707 22.8163 18.147 21.8506 18.2175C18.9629 18.4284 17.668 17.6909 15.6206 15.6774C17.841 16.649 18.9209 16.9933 20.5423 17.1513C23.0655 17.3972 23.9983 16.1586 24 14.4858C23.8177 10.236 23.1901 8.96807 21.6949 9.31147C19.8539 9.83566 18.8565 9.69784 17.147 8.5902C18.315 8.56221 19.0263 8.49918 20.4177 8.02573C21.1342 7.74505 21.3977 7.24993 21.0719 6.55183C20.0624 4.29871 19.5721 2.97982 18.8291 0.53081C18.6422 -0.0948186 17.8966 -0.180097 17.1158 0.342654C13.9074 2.60054 12.786 3.42817 11.8515 3.98035C10.512 4.73298 8.89224 5.86192 8.36266 6.67726C7.45933 8.02572 8.82994 9.53099 11.4154 10.3777C9.85789 11.0676 9.00266 10.6706 6.80516 8.5902C6.43138 8.30797 5.90183 8.40205 5.30996 8.5902C4.46893 8.87244 2.97372 10.2836 2.50645 12.1338C2.00807 14.8621 4.40663 14.6426 7.49046 15.8029C6.61828 16.8377 4.59353 16.6182 2.1638 15.207C1.85232 15.0503 1.38507 15.126 1.167 15.3638C0.419416 16.1792 -0.577387 18.7507 0.419395 21.0713C2.07035 24.3013 5.65261 26.8728 9.54637 26.0261Z" fill="#0A2540"/>
</svg>
